<svg id="Layer_1" data-name="Layer 1" xmlns="http://www.w3.org/2000/svg" xmlns:xlink="http://www.w3.org/1999/xlink" viewBox="0 0 117.36 105.92"><defs><style>.cls-1{fill:none;}.cls-2{fill:url(#linear-gradient);}.cls-3{fill:#fff;}.cls-4{fill:url(#radial-gradient);}.cls-5{fill:url(#radial-gradient-2);}.cls-6{fill:url(#linear-gradient-2);}.cls-7{fill:url(#linear-gradient-3);}.cls-8{fill:#f15b28;}.cls-9{clip-path:url(#clip-path);}.cls-10{fill:#b72f26;}</style><linearGradient id="linear-gradient" x1="44.02" y1="-36.65" x2="44.02" y2="111.1" gradientUnits="userSpaceOnUse"><stop offset="0" stop-color="#3e5caa"/><stop offset="1" stop-color="#f15b27"/></linearGradient><radialGradient id="radial-gradient" cx="31.2" cy="14.87" r="77.19" xlink:href="#linear-gradient"/><radialGradient id="radial-gradient-2" cx="24.83" cy="52.96" r="39.54" xlink:href="#linear-gradient"/><linearGradient id="linear-gradient-2" x1="71.71" y1="9.66" x2="71.71" y2="22.84" xlink:href="#linear-gradient"/><linearGradient id="linear-gradient-3" x1="71.71" y1="80" x2="71.71" y2="93.46" xlink:href="#linear-gradient"/><clipPath id="clip-path"><path class="cls-1" d="M66.16,77.9l-.55-2A30,30,0,0,0,64,71.54c-1-2-1.66-2.54-1.84-2.57l-15.09-.08a1.29,1.29,0,0,1,0-2.57h-1.8l16.89.08c1.49,0,2.83,1.28,4.09,3.9a33.09,33.09,0,0,1,1.83,5l.47,1.69,1.62-31.58A2.5,2.5,0,0,1,75.11,45l0,.09,1.56,22.27a1.7,1.7,0,0,0,2.76.82l4.1-4a4,4,0,0,1,5.8.21l3.38,3.82,0,0a3.75,3.75,0,0,0,2.9,1.36h18.79a1.29,1.29,0,0,1,0,2.57H95.66a6.32,6.32,0,0,1-4.87-2.28l-3.37-3.8a1.42,1.42,0,0,0-1-.49,1.45,1.45,0,0,0-1.06.41l-4.12,4,0,0a4.27,4.27,0,0,1-7-2.21l0-.09-1.46-21L71.11,77.38a2.49,2.49,0,0,1-2.25,2.35h-.28A2.49,2.49,0,0,1,66.16,77.9Zm2.39-.67Z"/></clipPath></defs><polygon class="cls-2" points="73.53 22.25 85.1 22.25 85.1 1.5 3.07 1.5 39.64 53.93 2.94 104.42 85.1 104.42 85.1 83.44 73.53 83.44 73.53 83.47 69.88 83.47 69.88 92.85 25.65 92.85 53.84 54.07 25.24 13.07 69.88 13.07 69.88 22.25 73.53 22.25"/><path class="cls-3" d="M86.6,105.92H0l37.79-52L.19,0H86.6V23.75H68.38V14.57H28.12L55.68,54.08,28.6,91.35H68.38V82l18.22,0Zm-80.71-3H83.6v-18L71.38,85v9.38H22.71L52,54.05,22.37,11.57h49v9.18H83.6V3H5.94L41.48,54l-.63.86Z"/><polygon class="cls-4" points="85.1 104.42 2.94 104.42 39.64 53.93 3.07 1.5 85.1 1.5 85.1 22.25 73.53 22.25 73.53 13.07 25.24 13.07 53.84 54.07 25.65 92.85 73.53 92.85 73.53 83.44 85.1 83.44 85.1 104.42"/><polyline class="cls-5" points="10.06 104.42 46.71 52.96 10.06 1.5 3.07 1.5 39.64 53.93 2.94 104.42"/><rect class="cls-6" x="69.88" y="13.07" width="3.66" height="9.18"/><rect class="cls-7" x="69.88" y="83.47" width="3.66" height="9.38"/><path class="cls-3" d="M57.45,62.05V43.35h2.66l4.17,9.71V43.35h3.16v18.7H64.9L60.7,51.72V62.05Z"/><path class="cls-3" d="M83,62.31a5.74,5.74,0,0,1-2.38-.45A3.71,3.71,0,0,1,79,60.54a6.09,6.09,0,0,1-.85-2,11.91,11.91,0,0,1-.26-2.69V49.66a13.61,13.61,0,0,1,.16-2.24,6.59,6.59,0,0,1,.56-1.81,4,4,0,0,1,1-1.36,4.44,4.44,0,0,1,1.57-.84,7.13,7.13,0,0,1,2.18-.3,7.46,7.46,0,0,1,2.51.37,3.68,3.68,0,0,1,1.67,1.1,4.65,4.65,0,0,1,.89,1.71,8.75,8.75,0,0,1,.27,2.3v1.06H85V48.39c0-.35,0-.63,0-.85a3.55,3.55,0,0,0-.11-.68,1.53,1.53,0,0,0-.26-.56,1.31,1.31,0,0,0-.47-.33,2,2,0,0,0-1.51,0,1.43,1.43,0,0,0-.49.4,1.72,1.72,0,0,0-.26.65,3.77,3.77,0,0,0-.12.74c0,.22,0,.51,0,.86v8.11a4.53,4.53,0,0,0,.37,2.07,1.42,1.42,0,0,0,1.39.72A1.46,1.46,0,0,0,85,58.78a4.69,4.69,0,0,0,.4-2.17V54.77H83.52V52.43h5.27v9.62H86.3l-.25-1.72A3.07,3.07,0,0,1,83,62.31Z"/><path class="cls-3" d="M90.16,62.05l.31-18.7h4l2.36,11.93,2.48-11.93h3.89l.31,18.7h-2.79l-.26-12.62L98,62.05H95.71L93.22,49.36,93,62.05Z"/><path class="cls-3" d="M104.16,62.05l3.65-18.7H112l3.65,18.7H112.1l-.69-4.14h-3l-.69,4.14Zm4.64-6.5H111l-1.11-7.44Z"/><path class="cls-8" d="M66.16,77.9l-.55-2A30,30,0,0,0,64,71.54c-1-2-1.66-2.54-1.84-2.57l-15.09-.08a1.29,1.29,0,0,1,0-2.57h-1.8l16.89.08c1.49,0,2.83,1.28,4.09,3.9a33.09,33.09,0,0,1,1.83,5l.47,1.69,1.62-31.58A2.5,2.5,0,0,1,75.11,45l0,.09,1.56,22.27a1.7,1.7,0,0,0,2.76.82l4.1-4a4,4,0,0,1,5.8.21l3.38,3.82,0,0a3.75,3.75,0,0,0,2.9,1.36h18.79a1.29,1.29,0,0,1,0,2.57H95.66a6.32,6.32,0,0,1-4.87-2.28l-3.37-3.8a1.42,1.42,0,0,0-1-.49,1.45,1.45,0,0,0-1.06.41l-4.12,4,0,0a4.27,4.27,0,0,1-7-2.21l0-.09-1.46-21L71.11,77.38a2.49,2.49,0,0,1-2.25,2.35h-.28A2.49,2.49,0,0,1,66.16,77.9Zm2.39-.67Z"/><g class="cls-9"><rect class="cls-10" x="46.95" y="45.44" width="70.42" height="1.81"/><rect class="cls-10" x="46.95" y="63.49" width="70.42" height="1.81"/><rect class="cls-10" x="46.95" y="73.12" width="70.42" height="1.81"/><rect class="cls-10" x="46.95" y="70.71" width="70.42" height="1.81"/><rect class="cls-10" x="46.95" y="60.48" width="70.42" height="1.81"/><rect class="cls-10" x="46.95" y="53.86" width="70.42" height="1.81"/><rect class="cls-10" x="46.95" y="56.27" width="70.42" height="1.81"/></g></svg>