<svg id="Layer_1" data-name="Layer 1" xmlns="http://www.w3.org/2000/svg" xmlns:xlink="http://www.w3.org/1999/xlink" viewBox="0 0 114.42 102.92"><defs><style>.cls-1{fill:none;}.cls-2{fill:url(#radial-gradient);}.cls-3{fill:url(#radial-gradient-2);}.cls-4{fill:url(#linear-gradient);}.cls-5{fill:url(#linear-gradient-2);}.cls-6{fill:#f15b28;}.cls-7{clip-path:url(#clip-path);}.cls-8{fill:#b72f26;}</style><radialGradient id="radial-gradient" cx="28.26" cy="13.37" r="77.19" gradientUnits="userSpaceOnUse"><stop offset="0" stop-color="#3e5caa"/><stop offset="1" stop-color="#f15b27"/></radialGradient><radialGradient id="radial-gradient-2" cx="21.88" cy="51.46" r="39.54" xlink:href="#radial-gradient"/><linearGradient id="linear-gradient" x1="68.76" y1="8.16" x2="68.76" y2="21.34" xlink:href="#radial-gradient"/><linearGradient id="linear-gradient-2" x1="68.76" y1="78.5" x2="68.76" y2="91.96" xlink:href="#radial-gradient"/><clipPath id="clip-path"><path class="cls-1" d="M63.22,76.4l-.55-2A31.3,31.3,0,0,0,61.06,70c-1-2-1.67-2.54-1.84-2.57l-15.09-.08a1.29,1.29,0,1,1,0-2.57h-1.8l16.88.08c1.5,0,2.84,1.28,4.1,3.9a32.77,32.77,0,0,1,1.82,5l.48,1.69,1.62-31.58a2.5,2.5,0,0,1,4.93-.39l0,.09,1.55,22.27A1.69,1.69,0,0,0,74.87,67a1.64,1.64,0,0,0,1.63-.34l4.1-4a4,4,0,0,1,3-1.13,3.94,3.94,0,0,1,2.85,1.34l3.38,3.82,0,0a3.78,3.78,0,0,0,2.9,1.36H111.5a1.29,1.29,0,1,1,0,2.57H92.71a6.3,6.3,0,0,1-4.86-2.28l-3.37-3.8a1.44,1.44,0,0,0-1-.49,1.42,1.42,0,0,0-1,.41l-4.12,4,0,0a4.27,4.27,0,0,1-7-2.21l0-.09-1.46-21L68.17,75.88a2.49,2.49,0,0,1-2.26,2.35h-.28A2.47,2.47,0,0,1,63.22,76.4Zm2.38-.67Z"/></clipPath></defs><polygon class="cls-2" points="82.16 102.92 0 102.92 36.69 52.43 0.12 0 82.16 0 82.16 20.75 70.59 20.75 70.59 11.57 22.3 11.57 50.89 52.57 22.71 91.35 70.59 91.35 70.59 81.94 82.16 81.94 82.16 102.92"/><polyline class="cls-3" points="7.12 102.92 43.77 51.46 7.12 0 0.12 0 36.69 52.43 0 102.92"/><rect class="cls-4" x="66.93" y="11.57" width="3.66" height="9.18"/><rect class="cls-5" x="66.93" y="81.97" width="3.66" height="9.38"/><path class="cls-6" d="M54.51,60.55V41.85h2.65l4.17,9.71V41.85h3.16v18.7H62L57.76,50.22V60.55Z"/><path class="cls-6" d="M80,60.81a5.71,5.71,0,0,1-2.38-.45A3.71,3.71,0,0,1,76.07,59a5.89,5.89,0,0,1-.85-2A11.87,11.87,0,0,1,75,54.32V48.17a13.57,13.57,0,0,1,.17-2.25,6.58,6.58,0,0,1,.55-1.81,4.19,4.19,0,0,1,1-1.36,4.3,4.3,0,0,1,1.56-.84,7.23,7.23,0,0,1,2.18-.3A7.52,7.52,0,0,1,83,42a3.65,3.65,0,0,1,1.66,1.1,4.51,4.51,0,0,1,.89,1.71,8.32,8.32,0,0,1,.28,2.3v1.06H82.09V46.89c0-.35,0-.63,0-.85a4.56,4.56,0,0,0-.11-.68,1.53,1.53,0,0,0-.26-.56,1.41,1.41,0,0,0-.47-.33,1.82,1.82,0,0,0-.74-.13,1.67,1.67,0,0,0-.78.17,1.27,1.27,0,0,0-.48.39,1.72,1.72,0,0,0-.27.65,4.58,4.58,0,0,0-.11.74c0,.22,0,.51,0,.86v8.11a4.67,4.67,0,0,0,.37,2.07,1.42,1.42,0,0,0,1.39.72A1.47,1.47,0,0,0,82,57.28a4.69,4.69,0,0,0,.4-2.17V53.27H80.58V50.93h5.27v9.62H83.36l-.25-1.72A3.08,3.08,0,0,1,80,60.81Z"/><path class="cls-6" d="M87.22,60.55l.3-18.7h4l2.36,11.93,2.48-11.93h3.89l.3,18.7H97.78l-.26-12.62L95.09,60.55H92.77L90.28,47.86,90,60.55Z"/><path class="cls-6" d="M101.21,60.55l3.66-18.7H109l3.64,18.7h-3.53l-.69-4.14h-3l-.69,4.14Zm4.65-6.5h2.22L107,46.61Z"/><path class="cls-6" d="M63.22,76.4l-.55-2A31.3,31.3,0,0,0,61.06,70c-1-2-1.67-2.54-1.84-2.57l-15.09-.08a1.29,1.29,0,1,1,0-2.57h-1.8l16.88.08c1.5,0,2.84,1.28,4.1,3.9a32.77,32.77,0,0,1,1.82,5l.48,1.69,1.62-31.58a2.5,2.5,0,0,1,4.93-.39l0,.09,1.55,22.27A1.69,1.69,0,0,0,74.87,67a1.64,1.64,0,0,0,1.63-.34l4.1-4a4,4,0,0,1,3-1.13,3.94,3.94,0,0,1,2.85,1.34l3.38,3.82,0,0a3.78,3.78,0,0,0,2.9,1.36H111.5a1.29,1.29,0,1,1,0,2.57H92.71a6.3,6.3,0,0,1-4.86-2.28l-3.37-3.8a1.44,1.44,0,0,0-1-.49,1.42,1.42,0,0,0-1,.41l-4.12,4,0,0a4.27,4.27,0,0,1-7-2.21l0-.09-1.46-21L68.17,75.88a2.49,2.49,0,0,1-2.26,2.35h-.28A2.47,2.47,0,0,1,63.22,76.4Zm2.38-.67Z"/><g class="cls-7"><rect class="cls-8" x="44" y="43.94" width="70.42" height="1.81"/><rect class="cls-8" x="44" y="61.99" width="70.42" height="1.81"/><rect class="cls-8" x="44" y="71.62" width="70.42" height="1.81"/><rect class="cls-8" x="44" y="69.21" width="70.42" height="1.81"/><rect class="cls-8" x="44" y="58.98" width="70.42" height="1.81"/><rect class="cls-8" x="44" y="52.36" width="70.42" height="1.81"/><rect class="cls-8" x="44" y="54.77" width="70.42" height="1.81"/></g></svg>